<?xml version="1.0" standalone="no"?>
<!DOCTYPE svg PUBLIC "-//W3C//DTD SVG 20010904//EN"
 "http://www.w3.org/TR/2001/REC-SVG-20010904/DTD/svg10.dtd">
<svg version="1.0" xmlns="http://www.w3.org/2000/svg"
 width="500.000000pt" height="280.000000pt" viewBox="0 0 500.000000 280.000000"
 preserveAspectRatio="xMidYMid meet">

<g transform="translate(0.000000,280.000000) scale(0.100000,-0.100000)"
fill="#000000" stroke="none">
<path d="M0 2643 c0 -164 7 -236 21 -228 4 3 10 1 14 -5 3 -5 0 -10 -8 -10 -7
0 -14 -7 -14 -15 0 -9 10 -15 24 -15 14 0 21 -4 18 -10 -4 -6 5 -10 20 -10 17
0 24 -4 19 -12 -4 -6 -3 -8 3 -5 13 8 46 -27 36 -38 -5 -4 2 -1 15 6 12 8 22
17 22 21 0 5 5 8 10 8 7 0 7 -6 1 -18 -7 -14 -6 -19 4 -19 8 0 11 5 8 11 -4 6
1 5 10 -3 18 -14 23 -26 8 -16 -5 3 -12 2 -15 -3 -3 -5 16 -9 40 -11 27 -1 43
2 40 8 -3 5 -16 7 -29 5 -20 -4 -20 -4 -2 5 14 6 25 4 37 -7 17 -14 15 -38 -2
-27 -5 3 -12 0 -16 -7 -4 -7 -4 -10 1 -6 4 4 14 3 22 -4 11 -9 13 -8 11 2 -3
12 16 18 69 23 11 1 19 6 16 10 -3 5 -14 7 -24 4 -11 -3 -16 -1 -13 5 4 5 19
7 35 4 16 -3 29 -1 29 4 0 6 -5 10 -11 10 -5 0 -7 5 -3 11 5 8 9 8 14 -1 5 -8
13 -9 21 -4 8 5 19 9 24 9 14 0 14 47 1 64 -9 12 -8 13 3 7 10 -7 12 -3 6 14
-5 15 -4 20 4 16 6 -4 16 5 23 21 7 15 18 32 25 36 8 5 10 13 7 19 -9 15 18
29 33 17 8 -8 17 -5 30 10 9 12 22 21 28 21 6 0 16 9 23 20 15 24 30 25 54 3
18 -16 21 -16 47 0 36 21 75 23 68 3 -3 -8 1 -13 11 -12 9 0 16 -5 14 -12 -1
-7 5 -15 13 -18 8 -4 15 -12 15 -19 0 -7 11 -12 25 -11 14 0 25 4 25 8 0 13
41 -5 51 -23 13 -25 25 -24 32 2 4 15 11 20 22 15 9 -3 18 0 21 8 3 8 19 20
35 26 25 11 32 10 48 -4 9 -9 21 -13 24 -9 4 3 7 -1 7 -10 0 -9 6 -17 13 -17
7 0 26 -12 42 -27 16 -16 33 -27 36 -26 4 1 9 -7 12 -17 3 -11 1 -18 -4 -14
-5 3 0 -11 12 -30 16 -27 18 -39 10 -55 -21 -39 -14 -53 27 -50 44 3 75 16 67
29 -3 5 -1 19 5 30 9 17 21 20 72 20 58 0 60 -1 54 -22 -3 -13 -6 -31 -6 -41
0 -10 -11 -22 -24 -27 -30 -11 -43 -30 -21 -30 9 0 13 -5 10 -10 -4 -6 -11 -7
-17 -4 -6 4 -8 2 -5 -4 4 -5 17 -8 30 -4 19 5 20 4 9 -11 -11 -13 -17 -14 -32
-4 -16 9 -23 8 -42 -9 -13 -12 -30 -24 -40 -27 -9 -3 -22 -18 -30 -34 -7 -15
-24 -33 -38 -40 -14 -7 -21 -13 -16 -13 5 0 3 -7 -4 -15 -11 -13 -15 -13 -29
-2 -19 17 -54 30 -47 18 8 -13 -47 -59 -67 -56 -9 2 -15 -1 -11 -6 3 -5 9 -7
14 -4 4 3 14 -3 21 -12 8 -10 9 -14 2 -10 -6 4 -14 3 -17 -2 -7 -10 13 -9 29
1 6 4 17 3 25 -3 21 -12 30 -11 27 3 -1 7 7 12 18 13 11 0 21 -6 21 -12 3 -30
4 -33 12 -32 19 3 33 -2 27 -11 -7 -12 18 -14 29 -2 4 4 13 7 19 7 7 1 11 6
10 12 -1 6 7 9 20 7 12 -2 16 -2 10 2 -7 3 -13 10 -13 15 0 6 4 8 9 5 4 -3 16
3 26 14 10 11 21 17 26 15 4 -3 10 -1 14 5 8 13 55 13 55 0 0 -5 4 -10 10 -10
5 0 9 6 7 13 -1 6 4 11 12 9 12 -3 12 0 1 12 -7 9 -19 16 -26 16 -35 0 6 56
45 62 17 2 28 1 25 -3 -7 -12 15 -21 36 -14 11 4 20 13 20 21 0 9 12 14 38 15
20 0 50 2 65 3 15 1 33 -4 39 -11 6 -7 16 -13 23 -13 7 0 18 -7 25 -15 7 -8
17 -12 23 -8 12 8 74 6 88 -3 6 -4 3 -14 -8 -26 -18 -20 -17 -20 5 -13 33 10
92 -3 92 -20 0 -8 -9 -20 -21 -28 -15 -11 -17 -16 -7 -21 11 -5 11 -7 0 -12
-28 -13 -61 -58 -52 -69 13 -15 -17 -43 -51 -49 -13 -2 -24 -5 -24 -6 0 -1
-18 -4 -40 -6 -38 -5 -59 -20 -49 -36 3 -5 11 -5 17 -1 7 4 7 0 -1 -10 -12
-14 -11 -16 8 -12 21 4 21 3 7 -13 -15 -16 -15 -18 6 -19 12 -1 30 6 42 15 15
13 17 13 8 1 -9 -11 -9 -19 -2 -26 8 -8 7 -13 -2 -18 -7 -5 -10 -4 -6 1 3 6
-4 11 -15 11 -21 2 -21 2 1 -13 12 -9 18 -21 15 -27 -4 -7 5 -1 18 13 20 20
23 28 14 40 -6 8 -1 7 11 -4 13 -10 20 -23 17 -27 -3 -5 2 -9 11 -9 10 0 13 5
9 12 -4 6 -3 8 4 4 6 -3 14 -2 17 4 5 8 11 8 20 0 11 -9 10 -18 -7 -47 l-21
-35 21 13 c11 7 19 16 16 20 -5 9 23 21 56 25 14 1 17 0 8 -3 -10 -2 -18 -9
-18 -15 0 -5 -7 -7 -16 -4 -13 5 -14 4 -6 -7 7 -8 10 -16 7 -19 -3 -3 4 -13
15 -23 11 -10 20 -15 20 -10 0 4 8 1 18 -6 16 -13 16 -13 2 5 -8 11 -14 21
-12 23 8 12 -1 13 -15 2 -14 -12 -16 -12 -8 0 6 10 4 12 -6 6 -8 -5 -11 -4 -6
0 4 5 24 10 45 12 27 2 33 0 22 -7 -11 -7 -11 -10 -2 -10 7 0 11 -4 8 -9 -4
-5 2 -8 11 -6 10 2 18 4 18 5 0 1 8 3 17 5 12 2 15 -3 13 -16 -3 -15 2 -19 21
-19 18 0 23 -4 18 -12 -6 -10 -5 -10 8 -1 8 7 18 10 21 6 4 -3 7 1 7 11 0 16
2 16 15 2 8 -8 25 -13 36 -11 20 4 20 3 6 -13 -15 -17 -15 -18 8 -18 13 0 21
4 18 10 -4 5 3 7 15 4 12 -4 25 -2 28 4 3 5 13 3 24 -7 15 -13 18 -14 16 -2
-2 22 75 81 86 65 6 -10 8 -9 8 2 0 8 12 20 27 27 38 15 154 23 145 9 -3 -6 2
-5 12 3 11 9 13 18 7 24 -5 5 -7 16 -4 23 3 8 1 20 -5 27 -6 6 -12 21 -14 32
-4 26 -46 48 -78 41 -14 -2 -32 -1 -40 4 -9 5 -19 5 -27 -2 -10 -8 -13 -6 -13
8 0 14 -3 15 -8 6 -7 -10 -14 -10 -37 2 -15 8 -34 12 -41 9 -8 -3 -14 -1 -14
4 0 5 -10 9 -22 10 -20 2 -21 1 -5 -8 9 -6 17 -15 17 -21 0 -7 -16 4 -37 23
-26 24 -34 28 -29 14 4 -11 4 -16 0 -12 -4 4 -20 -5 -36 -20 l-29 -27 3 32 c1
20 7 31 14 28 6 -2 23 8 38 23 26 27 35 48 16 36 -5 -3 -10 -1 -10 5 0 6 -5 8
-12 4 -8 -5 -9 -2 -5 10 4 9 3 15 -2 12 -5 -3 -11 1 -15 9 -5 13 -11 12 -42
-6 -29 -16 -35 -17 -31 -5 4 10 1 16 -7 16 -8 0 -16 9 -19 20 -6 23 3 26 23 8
13 -11 13 -11 2 2 -17 20 -15 31 5 28 12 -2 17 5 18 24 1 18 -2 25 -12 21 -7
-3 -13 0 -13 6 0 6 6 11 13 11 9 0 9 2 -1 8 -7 5 -11 19 -9 33 3 13 0 35 -5
48 -5 14 -6 32 -2 40 4 9 8 19 8 23 1 3 4 10 9 14 4 4 7 18 7 31 0 14 4 21 10
18 6 -3 10 1 10 9 0 9 5 16 12 16 7 0 5 7 -5 18 -15 16 -15 19 4 30 17 11 24
11 36 0 15 -12 15 -11 4 10 -12 23 -10 25 24 24 17 -1 17 0 3 4 -10 3 -18 12
-18 21 0 14 3 13 25 -1 14 -9 25 -13 25 -8 0 16 -24 32 -49 33 -25 1 -25 1 3
9 16 5 34 6 39 3 6 -3 7 -1 4 4 -7 11 67 48 91 46 6 0 12 3 12 9 0 5 4 7 9 4
5 -4 12 0 15 6 5 10 7 10 12 0 5 -10 11 -10 30 2 21 15 24 14 33 -2 8 -13 11
-14 11 -2 0 12 4 10 15 -4 13 -17 15 -18 15 -3 0 19 20 24 20 5 1 -9 5 -8 13
3 17 22 37 12 37 -19 l1 -27 14 25 c12 22 14 23 20 7 6 -14 10 -15 21 -6 11 9
15 8 20 -4 3 -9 2 -22 -2 -29 -6 -11 -5 -11 8 0 20 16 32 1 23 -31 -6 -20 -5
-21 8 -4 14 16 15 16 21 -5 7 -22 7 -22 16 -3 7 17 9 17 9 3 1 -21 12 -23 30
-5 11 10 12 8 7 -9 -8 -28 2 -54 19 -48 15 6 15 -12 0 -36 -8 -13 -7 -13 9 -1
15 13 19 13 26 1 5 -9 4 -20 -3 -29 -10 -12 -8 -13 13 -8 14 4 19 4 13 1 -19
-8 -16 -51 4 -63 10 -6 12 -11 6 -11 -7 0 -12 -10 -10 -22 1 -18 -3 -22 -18
-20 -15 2 -17 1 -6 -6 7 -5 23 -7 35 -5 17 4 18 3 6 -6 -13 -9 -13 -12 -1 -20
11 -7 10 -11 -5 -20 -11 -6 -14 -11 -8 -11 13 0 14 -30 1 -30 -5 0 -6 -7 -3
-16 3 -8 2 -12 -4 -9 -6 3 -10 2 -10 -4 0 -5 5 -13 11 -16 15 -10 49 25 49 50
0 13 7 28 15 35 8 7 15 10 15 7 0 -3 16 -1 35 3 21 5 35 4 35 -1 0 -6 7 -6 18
-1 31 16 76 7 87 -16 6 -13 19 -22 32 -22 12 0 23 -6 25 -12 3 -9 10 -8 23 5
11 11 27 17 41 14 13 -2 22 -1 19 3 -2 3 2 18 10 33 9 17 10 29 4 33 -16 10
27 45 46 38 9 -4 28 2 44 14 21 15 39 19 69 16 33 -3 40 -1 36 11 -4 11 1 15
17 16 13 0 36 3 52 5 15 3 27 0 27 -6 0 -5 10 -10 21 -10 16 0 20 -5 16 -20
-3 -10 0 -21 7 -24 7 -3 5 -9 -6 -16 -10 -6 -18 -16 -18 -22 0 -7 4 -7 13 1
18 14 30 2 15 -16 -10 -12 -7 -13 15 -8 26 7 33 0 28 -27 -2 -12 27 -10 34 2
4 6 12 7 18 3 7 -4 32 -6 56 -5 31 1 51 -3 64 -16 11 -9 17 -12 14 -6 -9 15
19 38 37 31 9 -4 12 0 9 13 -6 21 27 43 51 34 25 -9 66 5 66 22 0 12 6 15 25
10 14 -4 25 -2 25 4 0 8 13 8 50 0 3 0 -4 -8 -15 -18 -19 -16 -20 -18 -3 -34
16 -16 18 -16 34 0 19 19 62 24 81 10 7 -6 17 -7 23 -3 5 3 10 1 10 -5 0 -7 7
-9 15 -6 9 3 18 -1 21 -9 8 -19 54 -19 90 0 16 8 25 15 20 15 -5 0 -3 7 4 15
10 13 3 24 -47 73 -33 31 -59 63 -58 70 2 6 3 18 4 25 2 18 70 52 97 49 20 -3
24 1 24 25 0 32 32 65 55 57 8 -4 15 -1 15 5 0 6 11 16 25 21 17 6 27 20 31
40 5 22 10 28 19 20 8 -6 15 -6 23 2 8 8 15 8 27 -2 12 -10 18 -10 32 1 13 11
17 11 20 2 3 -7 18 -13 34 -13 21 0 29 -5 29 -18 0 -11 11 -24 25 -30 14 -6
25 -8 25 -4 0 11 68 35 79 28 5 -3 14 1 21 9 7 8 17 15 22 15 28 0 38 31 38
119 l0 91 -1194 0 c-1045 0 -1195 -2 -1206 -15 -7 -8 -17 -12 -22 -9 -6 4 -5
10 3 15 8 5 -556 9 -1283 9 l-1298 0 0 -157z m1765 97 c-3 -5 -15 -10 -26 -10
-11 0 -17 5 -14 10 3 6 15 10 26 10 11 0 17 -4 14 -10z m-425 -15 c-15 -18
-50 -20 -50 -2 0 7 14 14 31 15 28 2 30 0 19 -13z m950 -69 c0 -3 -4 -8 -10
-11 -5 -3 -10 -1 -10 4 0 6 5 11 10 11 6 0 10 -2 10 -4z m1655 -26 c-3 -5 -14
-10 -23 -10 -15 0 -15 2 -2 10 20 13 33 13 25 0z m-1335 -40 c0 -5 -4 -10 -10
-10 -5 0 -10 5 -10 10 0 6 5 10 10 10 6 0 10 -4 10 -10z m1295 -50 c-3 -5 -11
-10 -16 -10 -6 0 -7 5 -4 10 3 6 11 10 16 10 6 0 7 -4 4 -10z m-1765 -9 c0
-13 -28 -22 -35 -11 -3 4 1 11 7 13 20 8 28 8 28 -2z m-685 -31 c-3 -5 -13
-10 -21 -10 -8 0 -12 5 -9 10 3 6 13 10 21 10 8 0 12 -4 9 -10z m1510 -10 c-3
-5 -14 -10 -23 -9 -14 0 -13 2 3 9 27 11 27 11 20 0z m-998 -36 c9 -9 8 -15
-6 -28 -10 -9 -22 -16 -28 -16 -10 0 -35 45 -28 52 9 8 51 3 62 -8z m1438 -4
c-3 -5 -12 -10 -18 -10 -7 0 -6 4 3 10 19 12 23 12 15 0z m-1959 -49 c-19 -20
-56 -34 -56 -21 0 9 63 49 69 44 2 -2 -4 -12 -13 -23z m-1369 3 c-3 -3 -12 -4
-19 -1 -8 3 -5 6 6 6 11 1 17 -2 13 -5z m28 -35 c-4 -5 -14 -8 -23 -8 -15 1
-15 2 1 6 9 2 14 9 11 15 -4 7 -2 8 5 4 6 -4 9 -12 6 -17z m43 -4 c-3 -3 -9 2
-12 12 -6 14 -5 15 5 6 7 -7 10 -15 7 -18z m5 -21 c6 1 9 1 4 -1 -4 -3 -5 -8
-2 -13 3 -5 -1 -7 -7 -6 -25 3 -37 17 -31 32 5 15 7 15 15 1 5 -9 14 -15 21
-13z m147 -20 c0 -8 -19 -13 -24 -6 -3 5 1 9 9 9 8 0 15 -2 15 -3z m1667 -26
c-3 -8 -6 -5 -6 6 -1 11 2 17 5 13 3 -3 4 -12 1 -19z m1979 -83 c-22 -17 -46
-20 -46 -6 0 10 22 18 50 20 11 0 10 -4 -4 -14z m-1850 -85 c24 0 16 -48 -11
-66 -14 -9 -27 -15 -28 -13 -2 2 -11 17 -21 33 -18 28 -18 30 0 43 10 7 25 11
32 8 8 -3 20 -5 28 -5z m-895 -107 c-11 -5 -11 -7 0 -14 12 -8 -8 -7 -39 0
-12 3 11 17 30 18 13 0 17 -1 9 -4z m1109 -95 c0 -13 -5 -9 -31 19 l-24 26 27
-19 c15 -10 28 -22 28 -26z m40 -184 c0 -8 -4 -12 -10 -9 -5 3 -10 10 -10 16
0 5 5 9 10 9 6 0 10 -7 10 -16z m-216 -72 c3 -5 -1 -9 -9 -9 -8 0 -12 4 -9 9
3 4 7 8 9 8 2 0 6 -4 9 -8z m86 -27 c-6 -7 -8 -14 -5 -16 2 -3 -6 -5 -19 -5
-16 0 -23 5 -21 16 4 18 0 16 30 16 17 0 21 -3 15 -11z m215 -5 c-3 -4 -15 -6
-27 -2 -21 5 -21 6 -2 12 21 8 37 3 29 -10z m-138 -6 c0 -14 -23 -12 -37 2 -7
7 -2 10 13 10 13 0 24 -5 24 -12z m72 0 c-6 -8 -7 -14 0 -18 5 -4 12 -2 16 4
3 5 11 10 16 10 6 0 3 -7 -6 -16 -12 -13 -19 -14 -30 -4 -14 12 -19 7 -16 -13
1 -5 -3 -6 -9 -2 -8 5 -8 11 -1 19 7 8 7 16 1 22 -7 7 -1 10 15 10 18 0 21 -3
14 -12z"/>
<path d="M2186 1638 c3 -5 10 -6 15 -3 13 9 11 12 -6 12 -8 0 -12 -4 -9 -9z"/>
<path d="M2678 2479 c-10 -5 -18 -17 -18 -25 0 -8 5 -12 10 -9 6 3 10 1 10 -6
0 -20 11 -3 16 25 5 29 5 29 -18 15z"/>
<path d="M2715 2440 c-3 -5 -1 -10 5 -10 6 0 9 -4 6 -9 -3 -5 1 -11 9 -15 19
-7 20 18 1 33 -10 8 -16 9 -21 1z"/>
<path d="M2828 2343 c7 -3 16 -2 19 1 4 3 -2 6 -13 5 -11 0 -14 -3 -6 -6z"/>
<path d="M2900 2256 c0 -2 7 -6 15 -10 8 -3 15 -1 15 4 0 6 -7 10 -15 10 -8 0
-15 -2 -15 -4z"/>
<path d="M4483 2227 c-4 -7 -8 -14 -9 -17 -7 -35 -68 -110 -89 -110 -7 0 -20
-9 -30 -20 -31 -34 3 -22 47 17 25 22 35 27 23 13 -11 -14 -24 -28 -30 -32 -7
-5 -6 -14 2 -26 9 -15 8 -22 -4 -34 -13 -14 -12 -15 9 -11 23 4 37 -14 75 -98
1 -3 -4 -6 -12 -6 -8 0 -12 4 -9 9 3 4 -1 8 -8 8 -11 0 -10 2 0 9 11 6 9 9 -5
13 -22 6 -83 -43 -83 -66 0 -8 -4 -18 -10 -21 -15 -9 -12 -38 3 -29 6 4 9 4 5
-1 -4 -4 -3 -14 3 -21 7 -8 7 -14 -1 -19 -6 -4 -9 -3 -8 2 2 4 -1 9 -7 11 -5
1 -10 -6 -10 -15 0 -10 -4 -24 -9 -32 -6 -10 -5 -12 2 -7 7 4 12 1 12 -7 0
-27 24 -37 52 -23 24 13 29 12 44 -5 14 -15 15 -21 4 -34 -11 -13 -10 -19 5
-33 13 -12 16 -13 9 -2 -7 13 -6 13 9 1 10 -8 15 -16 12 -19 -3 -3 0 -11 6
-18 8 -10 15 -11 30 -1 13 8 22 9 27 2 9 -12 38 -13 49 -1 4 5 3 6 -4 2 -19
-10 -16 -1 4 15 11 10 14 10 9 2 -4 -8 -1 -13 9 -13 10 0 13 5 9 12 -4 7 -3 8
5 4 9 -6 9 -11 0 -22 -9 -11 -8 -14 4 -14 11 0 15 7 12 21 -6 29 16 59 42 59
13 0 23 4 23 9 0 16 85 51 124 51 20 0 35 -4 32 -9 -10 -15 31 -43 53 -36 12
3 21 10 21 14 0 4 9 7 21 8 37 3 49 22 49 78 0 61 -19 87 -50 67 -14 -9 -20
-8 -23 1 -4 9 -7 9 -18 0 -7 -7 -27 -13 -44 -13 -17 0 -40 -8 -51 -18 -34 -32
-52 -33 -78 -5 -25 26 -26 43 -4 43 7 0 22 9 34 21 13 12 38 22 56 24 20 1 33
8 33 16 0 8 8 13 18 11 25 -4 76 35 83 63 3 13 13 25 22 27 12 2 16 22 20 101
2 53 1 97 -3 97 -3 0 -13 -7 -21 -15 -8 -8 -40 -22 -72 -32 -31 -10 -58 -21
-60 -24 -2 -4 -16 -5 -32 -3 -15 3 -31 0 -35 -6 -5 -8 -10 -8 -20 0 -7 6 -16
7 -19 2 -7 -13 -98 -5 -107 9 -4 7 -20 10 -38 7 -24 -4 -31 -1 -29 10 2 9 13
16 25 17 34 2 39 13 10 24 -14 5 -28 14 -31 19 -8 14 -75 12 -83 -1z m497
-181 c0 -3 -4 -8 -10 -11 -5 -3 -10 -1 -10 4 0 6 5 11 10 11 6 0 10 -2 10 -4z"/>
<path d="M2760 2086 c0 -2 8 -10 18 -17 15 -13 16 -12 3 4 -13 16 -21 21 -21
13z"/>
<path d="M4366 2051 c-4 -5 -2 -12 3 -15 5 -4 12 -2 15 3 4 5 2 12 -3 15 -5 4
-12 2 -15 -3z"/>
<path d="M2915 2030 c3 -5 11 -10 16 -10 6 0 7 5 4 10 -3 6 -11 10 -16 10 -6
0 -7 -4 -4 -10z"/>
<path d="M1085 1990 c-3 -6 1 -7 9 -4 18 7 21 14 7 14 -6 0 -13 -4 -16 -10z"/>
<path d="M2340 1985 c-8 -9 -8 -15 -2 -15 12 0 26 19 19 26 -2 2 -10 -2 -17
-11z"/>
<path d="M1230 1976 c5 -5 10 -17 9 -25 0 -11 -2 -12 -6 -3 -2 6 -12 12 -21
12 -14 -1 -14 -3 3 -12 34 -21 45 -19 35 7 -5 13 -7 25 -4 27 2 3 -3 5 -11 5
-11 0 -12 -4 -5 -11z"/>
<path d="M2330 1916 c0 -2 7 -9 15 -16 12 -10 15 -10 15 4 0 9 -7 16 -15 16
-8 0 -15 -2 -15 -4z"/>
<path d="M2756 1868 c5 -7 2 -9 -9 -5 -9 3 -18 0 -21 -9 -3 -9 -11 -12 -17 -9
-7 5 -8 -5 -3 -32 5 -21 8 -48 9 -60 0 -11 3 -19 7 -17 4 2 9 0 13 -5 3 -5 13
-10 23 -10 19 0 80 -8 101 -13 18 -4 23 29 5 36 -16 6 -16 64 0 73 5 3 6 1 2
-5 -11 -18 0 -14 15 5 8 10 9 14 2 10 -6 -4 -14 -3 -18 3 -4 6 -10 8 -15 5
-12 -8 -61 5 -55 15 2 4 -7 12 -21 19 -19 8 -24 8 -18 -1z"/>
<path d="M1895 1720 c-3 -5 -3 -10 2 -10 4 0 1 -5 -7 -10 -13 -8 -13 -11 -1
-22 9 -8 11 -9 7 -1 -10 18 11 25 27 8 20 -20 28 -19 20 2 -4 10 -2 14 4 10
12 -8 36 17 26 26 -3 4 -14 0 -24 -9 -19 -17 -55 -12 -44 6 3 5 4 10 1 10 -3
0 -8 -4 -11 -10z"/>
<path d="M1796 1688 c3 -5 10 -6 15 -3 13 9 11 12 -6 12 -8 0 -12 -4 -9 -9z"/>
<path d="M4643 1533 c9 -2 15 -9 11 -14 -3 -5 -11 -6 -17 -2 -7 4 -6 -1 2 -10
11 -14 17 -15 30 -5 14 12 15 11 1 -6 -16 -21 -23 -49 -9 -40 5 3 9 -5 9 -18
0 -13 13 -47 29 -76 16 -28 24 -49 18 -45 -7 4 -6 -1 2 -10 7 -9 10 -17 6 -17
-5 0 0 -10 11 -22 12 -13 13 -18 4 -13 -9 5 -7 -1 5 -14 11 -13 20 -26 20 -30
0 -3 3 -5 7 -4 4 2 5 -4 1 -13 -3 -9 0 -20 8 -25 8 -5 9 -9 4 -9 -6 0 -10 -12
-9 -27 1 -16 -3 -34 -9 -41 -5 -7 -7 -15 -4 -19 9 -8 38 17 31 28 -3 5 -1 9 5
9 5 0 12 -6 14 -12 3 -7 6 -1 6 14 1 15 5 29 10 33 12 7 3 -45 -10 -61 -13
-16 2 -26 19 -11 13 10 15 9 9 -6 -5 -12 -3 -17 5 -15 18 6 18 37 0 48 -10 5
-12 10 -6 10 18 0 51 -42 37 -47 -10 -4 -9 -8 1 -19 19 -18 43 -19 28 -1 -6 6
-11 15 -11 20 -1 4 -1 8 -2 10 -1 1 -2 15 -4 30 -1 16 -8 33 -16 37 -7 5 -14
19 -14 32 0 13 -5 22 -11 21 -7 -1 -11 3 -11 10 1 35 -5 80 -10 70 -2 -7 -10
-13 -16 -13 -5 0 -7 3 -4 6 10 10 -35 84 -46 77 -6 -3 -7 -1 -3 5 3 6 -3 27
-14 46 -11 20 -17 36 -13 36 3 0 -2 9 -12 20 -10 11 -14 20 -10 20 4 0 1 8 -7
18 -8 9 -18 25 -21 35 -4 11 -16 17 -34 16 -17 -1 -21 -3 -10 -6z m67 -57 c0
-2 -8 -10 -17 -17 -16 -13 -17 -12 -4 4 13 16 21 21 21 13z"/>
<path d="M4845 1040 c-13 -4 -15 -9 -7 -14 7 -4 12 -4 12 0 0 3 6 1 14 -5 17
-15 29 0 12 15 -6 6 -20 8 -31 4z"/>
<path d="M4847 1013 c-8 -7 21 -43 35 -43 5 0 6 4 3 10 -3 5 0 7 7 5 17 -7 22
-55 7 -55 -6 0 -9 7 -5 15 4 10 -1 15 -16 15 -20 0 -20 -1 -5 -18 10 -10 14
-22 10 -27 -5 -4 3 -4 16 0 21 6 22 5 10 -8 -8 -8 -17 -13 -21 -10 -4 2 -5 -4
-1 -13 6 -16 7 -15 20 2 8 11 13 13 13 5 0 -8 6 -11 15 -7 12 4 13 1 7 -12
-10 -20 -10 -32 1 -49 5 -7 5 -13 0 -14 -4 0 1 -5 12 -10 19 -9 18 -9 -2 -5
-28 5 -38 -8 -21 -26 7 -7 14 -20 16 -28 4 -18 22 -30 42 -29 8 0 5 4 -7 9
-13 5 -23 12 -23 16 0 3 6 4 13 1 11 -4 13 10 11 64 -2 71 -14 98 -43 100 -12
0 -11 2 4 9 13 6 15 9 5 9 -13 1 -13 2 0 12 12 8 10 10 -10 5 -24 -5 -24 -4
-6 9 19 15 19 15 -3 15 -12 0 -19 4 -16 10 4 6 12 7 18 3 7 -4 6 0 -2 10 -7 9
-10 17 -5 17 4 0 3 5 -4 12 -8 8 -15 8 -27 -2 -11 -9 -18 -10 -28 -1 -8 6 -17
8 -20 4z m66 -17 c4 -10 1 -13 -8 -9 -8 3 -12 9 -9 14 7 12 11 11 17 -5z m53
-224 c-10 -2 -22 0 -28 6 -6 6 0 7 19 4 21 -5 23 -7 9 -10z m14 -16 c0 -2 -7
-7 -16 -10 -8 -3 -12 -2 -9 4 6 10 25 14 25 6z"/>
<path d="M2910 951 c0 -11 4 -22 9 -25 4 -3 6 6 3 19 -5 30 -12 33 -12 6z"/>
<path d="M3600 880 c0 -16 5 -30 10 -30 6 0 10 5 10 10 0 6 5 10 11 10 5 0 8
-4 5 -9 -4 -5 -3 -11 1 -14 5 -2 2 -2 -4 -1 -7 2 -13 -1 -13 -7 0 -6 -4 -7
-10 -4 -5 3 -10 -1 -10 -9 0 -12 7 -14 29 -10 33 7 49 -10 31 -31 -7 -8 -10
-22 -6 -30 3 -9 0 -15 -9 -15 -8 0 -15 -4 -15 -10 0 -5 7 -10 15 -10 12 0 12
-5 5 -26 -9 -22 -8 -25 4 -21 9 4 18 2 21 -3 3 -4 -9 -11 -26 -15 -32 -7 -52
1 -33 13 6 4 8 16 4 27 -6 17 -8 16 -14 -8 -3 -15 -11 -25 -16 -22 -4 3 -7
-10 -5 -29 3 -32 56 -139 74 -150 4 -3 18 4 29 15 20 18 26 17 23 -3 0 -5 6
-8 15 -8 8 0 12 5 8 11 -4 7 2 6 17 -2 23 -12 23 -12 4 -20 -11 -4 -14 -8 -7
-8 7 -1 10 -6 7 -11 -4 -6 -11 -8 -16 -5 -5 4 -9 1 -9 -5 0 -6 11 -8 25 -6 18
3 26 -1 32 -17 4 -12 6 -28 5 -34 -2 -7 1 -13 6 -13 13 0 33 26 26 33 -3 3 4
3 17 0 13 -4 20 -2 16 4 -3 5 6 8 23 5 l28 -4 2 144 c1 78 3 165 3 191 0 59
-18 80 -71 83 -20 1 -62 13 -92 26 -121 56 -150 59 -150 18z m260 -344 c0 -2
-7 -7 -16 -10 -8 -3 -12 -2 -9 4 6 10 25 14 25 6z m35 -6 c3 -5 1 -10 -4 -10
-6 0 -11 5 -11 10 0 6 2 10 4 10 3 0 8 -4 11 -10z m-85 -29 c-16 -31 -32 -36
-18 -7 6 14 15 26 20 26 5 0 4 -9 -2 -19z"/>
<path d="M2931 864 c0 -11 3 -14 6 -6 3 7 2 16 -1 19 -3 4 -6 -2 -5 -13z"/>
<path d="M4910 865 c0 -10 -5 -13 -12 -9 -7 4 -5 -2 5 -13 9 -11 14 -23 10
-26 -3 -4 2 -7 12 -7 13 0 15 3 8 13 -6 6 -9 20 -8 29 2 10 -1 20 -6 24 -5 3
-9 -2 -9 -11z"/>
<path d="M2935 830 c3 -5 8 -10 11 -10 2 0 4 5 4 10 0 6 -5 10 -11 10 -5 0 -7
-4 -4 -10z"/>
<path d="M2596 728 c3 -50 0 -67 -8 -62 -7 5 -8 3 -2 -7 12 -20 14 -38 3 -45
-5 -3 -9 -15 -9 -28 0 -12 -6 -28 -12 -35 -10 -11 -10 -13 0 -7 7 5 12 1 12
-9 0 -9 -4 -13 -10 -10 -6 4 -7 -2 -2 -17 10 -27 9 -56 -3 -81 -8 -20 -14
-145 -7 -164 2 -7 8 -13 14 -13 5 0 6 6 2 13 -4 6 3 3 15 -8 13 -11 26 -19 30
-18 3 1 8 0 9 -2 6 -6 -22 0 -33 7 -5 3 -19 2 -30 -3 -14 -5 -16 -8 -5 -9 8
-2 19 -2 24 -1 5 1 4 -4 -3 -12 -9 -12 -9 -16 1 -20 10 -4 10 -6 -1 -6 -11 -1
-11 -4 0 -18 11 -15 10 -15 -9 1 -17 15 -19 22 -11 33 9 10 8 13 0 13 -7 0
-17 14 -22 30 -6 16 -15 30 -21 30 -5 0 -6 5 -2 12 4 7 3 8 -5 4 -7 -5 -9 -12
-3 -19 10 -13 -12 -77 -27 -77 -5 0 7 -17 25 -37 19 -20 34 -47 34 -59 0 -13
5 -26 10 -29 21 -13 9 -25 -12 -14 -21 11 -22 11 -9 -4 12 -15 11 -17 -2 -17
-9 0 -21 8 -26 18 -6 10 -11 12 -11 4 0 -7 -4 -10 -10 -7 -5 3 -10 2 -10 -4 0
-5 5 -13 10 -16 6 -3 10 -2 10 3 0 6 10 6 24 -1 15 -7 22 -17 18 -27 -5 -13
-3 -13 11 -1 9 7 17 9 17 4 0 -5 17 -9 37 -8 l37 1 1 47 c1 56 -2 64 -35 70
l-25 4 27 2 c20 1 26 6 25 21 -1 12 -7 18 -14 16 -17 -7 -17 10 0 18 10 5 10
7 0 12 -7 3 -13 10 -13 16 0 19 28 -12 34 -37 4 -14 11 -25 17 -25 6 0 9 7 6
15 -8 20 14 31 27 14 6 -8 20 -21 31 -29 19 -14 19 -14 4 5 -9 11 -20 31 -24
45 -4 14 -12 31 -17 37 -7 9 -7 13 1 13 7 0 1 21 -14 51 -29 55 -52 61 -47 11
2 -18 0 -32 -5 -32 -5 0 -8 15 -8 32 1 18 -2 38 -8 45 -6 9 -3 11 11 8 17 -3
20 1 17 23 -2 15 -4 28 -6 30 -6 7 -4 70 3 90 5 16 5 21 -3 16 -8 -4 -8 0 0
15 7 11 8 21 4 21 -4 0 -1 5 7 10 9 6 11 10 3 10 -7 0 -10 7 -6 17 4 10 2 14
-4 10 -5 -3 -10 0 -10 8 0 8 4 12 9 9 13 -8 9 8 -5 20 -7 6 -10 10 -8 9 2 -2
10 2 18 8 10 9 13 8 13 -5 0 -10 5 -14 10 -11 6 4 7 11 4 17 -4 7 -2 8 4 4 8
-4 8 -15 2 -31 -6 -16 -6 -25 0 -25 5 0 7 -6 4 -14 -3 -8 0 -17 6 -21 8 -5 8
-10 0 -20 -8 -10 -7 -13 6 -11 9 0 24 -13 34 -31 9 -18 20 -30 23 -27 3 3 4
-2 2 -13 -1 -10 3 -25 10 -33 7 -8 32 -53 56 -100 24 -47 46 -87 49 -90 3 -3
6 -14 6 -25 0 -12 6 -19 14 -17 10 2 11 0 3 -10 -12 -15 13 -92 27 -83 5 3 6
-4 3 -15 -5 -20 -6 -20 -24 1 -11 12 -22 20 -24 17 -3 -3 8 -17 25 -32 17 -14
29 -26 25 -26 -3 0 -1 -9 5 -21 10 -17 14 -18 28 -7 15 11 16 11 4 -4 -16 -20
-9 -24 51 -27 29 -2 55 3 64 11 13 10 15 10 9 0 -6 -10 -1 -12 21 -9 18 3 27
9 24 18 -2 8 -3 96 -3 196 1 169 -7 229 -22 168 -4 -17 -11 -23 -19 -18 -8 4
-7 1 2 -10 9 -12 10 -17 2 -17 -6 0 -15 8 -18 18 -4 9 -11 20 -17 24 -13 9
-16 37 -5 44 5 3 9 -1 9 -9 0 -7 7 -14 15 -14 8 0 15 4 15 8 0 12 -36 30 -44
22 -3 -3 -6 0 -7 8 0 8 -2 21 -4 29 -1 8 -12 64 -24 124 -11 60 -23 112 -27
115 -3 3 -3 -7 0 -24 13 -62 48 -271 49 -292 1 -13 3 -23 7 -23 3 0 5 -17 5
-37 1 -34 10 -113 21 -166 9 -51 13 -131 5 -117 -8 14 -21 86 -24 138 -1 12
-8 27 -16 32 -12 7 -12 11 -2 24 11 13 11 16 -3 16 -9 0 -16 -7 -16 -15 0 -19
-10 -19 -38 1 -29 20 -47 63 -33 77 7 7 5 15 -7 23 -16 12 -16 13 0 14 9 0 20
6 24 13 4 6 3 9 -1 4 -5 -4 -15 -1 -24 7 -9 8 -27 16 -41 18 -13 1 -30 13 -36
26 -6 12 -22 35 -35 50 -18 20 -19 23 -4 12 15 -11 13 -7 -5 14 -14 16 -18 25
-10 21 13 -8 13 -6 1 8 -7 9 -17 15 -21 12 -4 -2 -5 7 -2 20 6 34 -12 52 -48
50 -33 -2 -48 9 -29 21 8 5 9 3 4 -6 -6 -9 -4 -11 4 -5 18 10 -27 55 -57 58
-12 1 -22 7 -22 15 0 7 5 10 10 7 6 -3 10 -1 10 4 0 6 -4 11 -8 11 -5 0 -8 17
-8 38 1 23 -3 39 -10 39 -7 0 -10 -23 -8 -69z m141 -131 c0 -8 -6 -14 -14 -14
-9 0 -10 4 -2 14 6 7 12 13 14 13 1 0 2 -6 2 -13z m-156 -271 c-8 -10 -9 -16
-1 -21 6 -3 8 -11 4 -16 -7 -12 -23 -2 -20 14 2 15 15 37 23 37 3 0 0 -6 -6
-14z m489 -85 c0 -6 -4 -13 -10 -16 -5 -3 -10 1 -10 9 0 9 5 16 10 16 6 0 10
-4 10 -9z m-56 -34 c3 4 6 4 6 1 0 -3 -6 -11 -13 -17 -11 -8 -18 -6 -33 10
-18 20 -18 20 8 10 14 -5 29 -7 32 -4z m-396 -61 c3 -3 -6 -6 -21 -6 -14 0
-28 4 -31 9 -6 9 42 6 52 -3z m5 -49 c8 5 8 2 0 -9 -7 -8 -9 -18 -5 -22 4 -4
0 -6 -8 -4 -8 2 -14 -2 -13 -8 1 -6 -5 -11 -13 -11 -10 0 -11 4 -5 10 7 7 7
15 -2 26 -9 12 -9 13 1 7 7 -4 15 0 19 10 4 11 8 13 11 6 2 -7 9 -9 15 -5z
m477 -23 c0 -8 -4 -14 -10 -14 -5 0 -10 9 -10 21 0 11 5 17 10 14 6 -3 10 -13
10 -21z m1 -46 c11 -21 11 -22 -4 -9 -10 7 -17 17 -17 22 0 15 9 10 21 -13z
m-497 -6 c3 -5 -1 -9 -9 -9 -8 0 -12 4 -9 9 3 4 7 8 9 8 2 0 6 -4 9 -8z"/>
<path d="M3938 743 c-8 -107 -7 -353 1 -350 5 1 9 -2 9 -8 0 -5 -4 -9 -10 -7
-5 1 -7 -2 -4 -7 4 -5 2 -12 -2 -15 -13 -8 -8 -61 6 -62 7 -1 16 -2 20 -3 5 0
14 -12 20 -26 6 -14 16 -25 22 -25 11 0 14 66 3 73 -5 2 -3 2 4 1 6 -2 14 2
17 9 3 7 5 -8 5 -33 -1 -63 -1 -64 16 -50 13 10 18 11 28 1 9 -10 9 -11 -4 -6
-8 3 -22 -2 -31 -12 -15 -16 -15 -20 -1 -38 11 -14 17 -16 20 -7 3 6 9 12 14
12 6 0 8 -4 5 -9 -4 -5 -2 -20 3 -32 l8 -24 7 23 c4 12 12 22 17 22 6 0 9 30
8 73 -2 101 9 201 38 354 28 150 25 163 -41 163 -19 0 -47 5 -63 11 -15 6 -37
12 -48 14 -11 2 -30 7 -42 10 -20 6 -21 3 -25 -52z m50 -343 c17 -22 19 -30 9
-30 -16 0 -31 16 -40 43 -10 27 7 20 31 -13z m42 -5 c9 -10 9 -15 1 -15 -6 0
-11 4 -11 9 0 5 -8 12 -17 14 -15 4 -15 5 -2 6 9 0 22 -6 29 -14z m-60 -34 c0
-5 8 -12 18 -14 9 -3 2 -5 -15 -6 -31 -1 -41 8 -26 22 9 10 23 8 23 -2z m140
-5 c0 -7 -11 -16 -25 -18 -29 -6 -32 0 -7 18 22 17 32 17 32 0z m-10 -39 c0
-8 -12 -19 -27 -26 -25 -11 -25 -11 -12 6 13 17 31 32 37 33 1 0 2 -6 2 -13z
m-100 -37 c0 -5 -5 -10 -11 -10 -5 0 -7 5 -4 10 3 6 8 10 11 10 2 0 4 -4 4
-10z"/>
<path d="M2951 764 c0 -11 3 -14 6 -6 3 7 2 16 -1 19 -3 4 -6 -2 -5 -13z"/>
<path d="M3400 730 c0 -5 7 -7 15 -4 8 4 15 8 15 10 0 2 -7 4 -15 4 -8 0 -15
-4 -15 -10z"/>
<path d="M4187 687 c-4 -23 -12 -131 -19 -240 -12 -191 -11 -200 7 -235 11
-20 27 -38 35 -40 11 -4 11 1 -3 24 -15 23 -11 21 15 -9 39 -44 58 -49 28 -7
-15 21 -17 28 -6 24 8 -3 21 -23 30 -44 8 -21 20 -41 26 -45 5 -3 10 -11 10
-17 0 -7 -14 1 -32 18 l-31 29 23 -32 c13 -18 21 -36 17 -39 -4 -4 0 -12 9
-18 13 -10 13 -12 -5 -12 -11 0 -18 2 -15 5 2 3 -8 17 -23 33 -26 27 -21 41 6
15 8 -6 3 3 -9 21 -13 17 -25 32 -27 32 -9 0 7 -64 21 -79 9 -9 16 -27 16 -40
0 -27 25 -38 47 -20 12 10 15 10 9 2 -5 -9 0 -13 17 -13 25 0 44 25 27 35 -6
4 -10 16 -10 28 0 12 -14 40 -30 61 -17 22 -30 44 -30 50 0 6 9 -4 20 -21 11
-18 24 -33 28 -33 9 0 31 -59 36 -95 4 -28 76 -36 76 -8 1 17 1 17 11 1 12
-22 49 -24 49 -2 0 8 -5 12 -11 8 -8 -4 -9 3 -5 23 5 21 2 34 -9 43 -12 10
-13 16 -4 27 9 10 9 26 1 66 -7 29 -16 81 -21 117 l-8 65 -2 -89 c-1 -72 2
-93 17 -109 16 -19 16 -20 -1 -14 -15 6 -16 4 -7 -13 7 -13 7 -20 1 -20 -6 0
-9 -17 -6 -40 2 -22 0 -40 -5 -40 -5 0 -9 8 -9 18 0 9 -1 32 -2 49 0 35 -12
48 -43 48 -18 0 -20 7 -19 55 0 30 3 62 6 70 9 25 26 313 20 347 -5 30 -42 66
-68 68 -5 0 -26 5 -45 12 -19 6 -49 14 -66 17 -30 5 -32 4 -37 -37z m119 -234
c57 -120 75 -171 65 -178 -5 -2 -7 -18 -6 -35 1 -17 -2 -33 -7 -36 -6 -4 -8 2
-6 12 2 11 -19 90 -48 177 -29 86 -51 157 -48 157 2 0 25 -44 50 -97z m-38
-198 c-2 -25 -7 -45 -12 -45 -5 0 -6 14 -2 31 3 17 6 38 6 45 0 8 2 14 5 14 3
0 4 -20 3 -45z m75 -80 c-3 -9 -8 -14 -10 -11 -3 3 -2 9 2 15 9 16 15 13 8 -4z
m82 -51 c0 -10 -7 -19 -15 -19 -8 0 -15 -5 -15 -12 0 -6 -3 -15 -7 -19 -6 -5
-4 62 1 73 1 1 9 0 19 -1 9 -2 17 -11 17 -22z"/>
<path d="M4393 125 c0 -6 6 -12 12 -12 6 0 12 6 12 12 0 6 -6 12 -12 12 -6 0
-12 -6 -12 -12z"/>
<path d="M3580 694 c0 -8 5 -12 10 -9 6 4 8 11 5 16 -9 14 -15 11 -15 -7z"/>
<path d="M4950 702 c0 -6 5 -14 12 -18 7 -5 8 -3 3 6 -5 9 -4 11 4 6 9 -6 9
-11 1 -21 -8 -10 -8 -19 -1 -33 6 -11 7 -23 3 -27 -4 -5 0 -4 8 0 13 8 13 6 1
-8 -7 -9 -11 -23 -8 -31 7 -19 -18 -42 -28 -26 -5 8 -11 8 -19 1 -7 -6 -16 -8
-20 -4 -3 4 -16 8 -29 10 -12 2 -26 8 -31 13 -6 6 -15 5 -25 -3 -12 -10 -13
-9 -6 2 6 11 1 13 -23 9 -17 -2 -29 -1 -26 3 2 4 -1 11 -7 15 -7 4 -9 3 -6 -3
4 -6 -1 -17 -10 -24 -10 -8 -14 -9 -10 -2 4 6 3 14 -2 17 -5 3 -11 -7 -13 -23
-3 -19 9 -55 37 -112 48 -100 115 -271 115 -297 0 -10 -5 -23 -11 -29 -9 -9
-7 -11 7 -9 15 3 18 11 17 37 -2 30 -2 31 7 11 11 -26 7 -68 -7 -65 -5 1 -8
-13 -8 -32 0 -18 3 -31 6 -29 4 2 9 -4 11 -14 4 -13 17 -18 56 -20 l52 -3 -3
40 c-1 23 -5 41 -9 41 -3 0 -2 16 4 36 7 27 6 40 -4 52 -20 24 -39 72 -33 82
3 5 -6 34 -20 66 -14 31 -25 59 -25 63 0 9 60 -88 60 -98 0 -5 7 -14 15 -21
14 -12 15 8 15 179 -1 105 -5 191 -9 191 -4 0 -7 9 -7 20 0 11 3 20 6 20 4 0
7 7 7 15 0 8 -4 15 -8 15 -4 0 -14 3 -23 6 -9 3 -16 1 -16 -4z m-17 -495 c7 7
50 -44 53 -62 1 -6 -9 -24 -23 -40 -16 -21 -22 -24 -17 -10 4 11 11 25 16 32
9 11 -15 73 -28 73 -2 0 0 -9 6 -21 20 -37 3 -31 -20 7 -12 21 -15 32 -7 26 7
-7 17 -9 20 -5z m2 -77 c4 -12 2 -27 -4 -34 -6 -7 -8 -16 -4 -20 4 -4 -1 -4
-11 0 -17 7 -18 3 -13 -32 5 -27 4 -33 -3 -19 -14 32 -11 63 6 73 11 6 15 17
11 31 -7 27 10 28 18 1z"/>
<path d="M3500 664 c0 -14 -4 -23 -10 -19 -5 3 -7 12 -3 20 3 8 0 15 -5 15
-14 0 -6 -41 9 -50 6 -5 3 -9 -10 -13 -12 -3 -19 -2 -16 3 3 4 -3 14 -12 21
-15 12 -16 12 -10 -3 4 -10 2 -18 -5 -18 -7 0 -7 -4 1 -14 7 -8 20 -13 29 -11
9 1 23 -2 30 -8 9 -7 12 3 12 47 0 31 -2 56 -5 56 -3 0 -5 -12 -5 -26z"/>
<path d="M3250 646 c0 -2 7 -7 16 -10 8 -3 12 -2 9 4 -6 10 -25 14 -25 6z"/>
<path d="M4457 611 c-3 -15 -2 -45 4 -67 23 -97 69 -330 69 -351 0 -13 5 -23
12 -23 6 0 8 -3 5 -6 -3 -4 -2 -15 4 -25 5 -11 6 -19 1 -19 -4 0 -8 -8 -9 -17
0 -10 -4 -37 -8 -61 l-7 -42 177 0 c137 0 176 3 172 13 -2 6 -14 11 -27 9
l-22 -2 23 20 c13 10 19 19 12 20 -7 0 -10 7 -7 15 3 8 2 20 -2 27 -5 7 -9 15
-9 18 -3 21 -19 77 -25 90 -4 8 -22 54 -40 103 -17 48 -41 109 -53 135 l-21
47 -13 -65 c-6 -36 -12 -80 -13 -97 0 -18 -5 -33 -10 -33 -6 0 -8 11 -6 25 3
13 0 27 -5 31 -5 3 -9 2 -8 -3 4 -22 -3 -24 -23 -7 -13 10 -20 15 -16 10 4 -5
2 -16 -5 -25 -10 -14 -10 -14 5 -3 9 7 18 9 21 5 3 -5 -5 -13 -18 -19 -22 -11
-22 -10 -19 30 3 23 11 79 19 126 23 131 23 130 -30 130 -26 0 -63 9 -84 20
l-39 19 -5 -28z m213 -325 c8 -3 5 -4 -7 -2 -13 2 -26 0 -29 -5 -3 -5 -10 -7
-15 -3 -6 4 -6 11 2 20 7 9 16 11 23 5 6 -4 18 -11 26 -15z m60 -75 c-10 -26
-14 -28 -26 -16 -18 18 -18 31 0 16 11 -9 15 -6 20 15 4 14 10 24 13 21 3 -4
0 -20 -7 -36z m54 4 c-4 -8 -10 -15 -15 -15 -6 0 -6 -7 0 -17 13 -25 13 -135
0 -127 -6 3 -8 13 -4 22 3 8 -4 25 -16 39 -22 23 -14 34 9 11 15 -15 16 0 2
38 -8 21 -7 31 6 45 21 23 25 24 18 4z m-117 -17 c-3 -8 -6 -5 -6 6 -1 11 2
17 5 13 3 -3 4 -12 1 -19z m81 -114 c-5 -5 -58 60 -58 71 0 3 14 -10 31 -30
18 -20 29 -38 27 -41z m59 54 c-3 -8 -6 -5 -6 6 -1 11 2 17 5 13 3 -3 4 -12 1
-19z m-107 -33 c7 -8 8 -15 2 -15 -5 0 -15 7 -22 15 -7 8 -8 15 -2 15 5 0 15
-7 22 -15z m-35 -25 c-3 -5 -11 -10 -16 -10 -6 0 -7 5 -4 10 3 6 11 10 16 10
6 0 7 -4 4 -10z m45 -16 c0 -2 -9 -4 -21 -4 -11 0 -18 4 -14 10 5 8 35 3 35
-6z m-54 -40 c-4 -9 -9 -15 -11 -12 -3 3 -3 13 1 22 4 9 9 15 11 12 3 -3 3
-13 -1 -22z m100 -1 c-2 -2 -22 -1 -45 3 -25 4 -38 10 -31 14 11 7 84 -9 76
-17z"/>
<path d="M3119 623 c-1 -5 -1 -17 0 -28 2 -17 0 -17 -8 -5 -6 8 -11 10 -11 5
0 -6 5 -16 12 -23 7 -7 8 -12 4 -12 -5 0 -4 -6 2 -13 17 -20 52 -137 52 -172
0 -16 7 -59 15 -95 38 -168 43 -200 38 -239 -6 -41 -5 -41 26 -41 19 0 30 4
26 10 -3 5 -2 10 4 10 5 0 12 -4 16 -9 3 -5 27 -9 53 -8 l47 2 1 45 c1 25 -5
60 -12 78 -7 17 -9 32 -4 32 11 0 42 -82 38 -99 -2 -8 3 -16 10 -18 9 -4 11 2
7 20 -5 17 -2 26 10 31 13 5 16 2 11 -10 -4 -10 -1 -14 6 -12 7 3 13 18 14 34
3 52 4 55 17 48 9 -6 9 -5 0 8 -7 8 -9 19 -5 23 4 5 1 5 -6 1 -7 -4 -10 -12
-7 -17 4 -5 1 -9 -5 -9 -7 0 -9 8 -5 21 6 18 4 20 -17 15 -20 -6 -20 -5 -5 4
9 6 15 17 11 23 -3 7 1 4 9 -6 8 -9 16 -17 19 -17 7 0 2 42 -7 63 -10 23 -25
22 -20 -3 2 -11 -1 -20 -7 -20 -5 0 -8 6 -5 14 3 7 2 17 -3 22 -5 5 -2 15 6
22 10 10 14 10 14 1 0 -7 2 -10 5 -7 3 3 -1 17 -8 31 -8 15 -17 24 -20 20 -4
-3 -2 -12 4 -19 6 -7 6 -15 1 -18 -7 -4 -60 109 -68 144 0 3 -4 18 -9 34 l-8
30 -13 -44 c-7 -23 -15 -59 -19 -79 -3 -20 -8 -53 -12 -74 -3 -21 -11 -36 -17
-34 -13 4 -15 85 -3 138 l7 35 -39 -1 c-22 -1 -38 2 -35 6 2 4 0 10 -6 14 -5
3 -10 15 -10 26 0 10 -6 19 -12 19 -9 0 -8 4 2 10 12 8 10 10 -10 11 -14 1
-29 1 -33 0 -5 -1 -6 3 -2 9 3 6 10 8 15 5 6 -3 2 7 -7 24 -10 16 -22 29 -28
28 -5 -1 -9 4 -7 11 1 6 0 12 -3 12 -3 0 -6 -3 -6 -7z m288 -405 c-3 -8 -6 -5
-6 6 -1 11 2 17 5 13 3 -3 4 -12 1 -19z m53 -102 c0 -2 -7 -7 -16 -10 -8 -3
-12 -2 -9 4 6 10 25 14 25 6z m-155 -67 c10 -29 3 -31 -18 -3 -15 20 -15 24
-3 24 8 0 18 -9 21 -21z"/>
<path d="M2769 602 c13 -25 28 -35 34 -25 3 5 -6 16 -20 27 -25 18 -25 18 -14
-2z"/>
<path d="M3394 607 c1 -8 8 -22 15 -31 11 -14 11 -16 -3 -16 -19 0 -14 -29 15
-95 23 -49 23 -62 4 -68 -10 -3 -10 -4 2 -3 12 2 25 -12 39 -43 l21 -45 7 110
c3 60 9 120 13 133 5 18 3 22 -7 16 -7 -4 -15 -3 -19 3 -4 7 -17 13 -28 15
-12 2 -31 11 -42 21 -15 14 -19 15 -17 3z m63 -43 c-3 -3 -12 -4 -19 -1 -8 3
-5 6 6 6 11 1 17 -2 13 -5z m-10 -30 c-3 -3 -12 -4 -19 -1 -8 3 -5 6 6 6 11 1
17 -2 13 -5z"/>
<path d="M3308 550 c-14 -13 -15 -17 -3 -17 8 0 17 7 20 15 8 21 3 22 -17 2z"/>
<path d="M3026 533 c-6 -14 -5 -15 5 -6 7 7 10 15 7 18 -3 3 -9 -2 -12 -12z"/>
<path d="M3582 511 c-1 -34 3 -41 18 -41 17 0 18 3 8 33 -17 50 -26 53 -26 8z"/>
<path d="M2502 521 c-10 -6 -10 -10 2 -20 10 -8 16 -9 21 -1 3 5 1 10 -5 10
-6 0 -8 5 -5 10 7 12 4 12 -13 1z"/>
<path d="M2950 511 c0 -5 5 -13 10 -16 6 -3 10 -2 10 4 0 5 -4 13 -10 16 -5 3
-10 2 -10 -4z"/>
<path d="M3245 509 c-4 -6 -5 -12 -2 -15 2 -3 7 2 10 11 7 17 1 20 -8 4z"/>
<path d="M2546 491 c-4 -5 -2 -12 4 -16 6 -4 8 -10 5 -15 -3 -5 -1 -11 3 -14
10 -6 10 40 0 49 -3 4 -9 2 -12 -4z"/>
<path d="M2406 456 c-9 -11 -16 -24 -16 -28 0 -11 28 -10 35 2 3 6 1 10 -5 10
-6 0 -8 5 -5 10 4 6 10 8 15 5 4 -3 13 2 20 10 9 11 8 14 -8 12 -11 0 -27 -10
-36 -21z"/>
<path d="M3580 415 c0 -34 3 -43 14 -39 8 3 17 1 21 -5 3 -6 -1 -11 -9 -11 -8
0 -17 -4 -20 -9 -3 -5 10 -7 29 -4 23 3 35 1 35 -7 0 -7 -7 -10 -15 -6 -15 5
-20 -5 -8 -17 13 -13 33 16 33 49 0 24 -5 34 -15 34 -8 0 -15 6 -15 14 0 16
-26 46 -41 46 -5 0 -9 -20 -9 -45z m33 5 c3 -11 1 -23 -4 -26 -5 -3 -9 -1 -9
5 0 5 -3 16 -6 25 -3 9 -2 16 4 16 5 0 12 -9 15 -20z"/>
<path d="M3070 435 c7 -8 17 -15 22 -15 6 0 5 7 -2 15 -7 8 -17 15 -22 15 -6
0 -5 -7 2 -15z"/>
<path d="M2659 390 c-15 -16 -14 -22 19 -89 21 -40 43 -71 52 -72 10 0 11 -2
3 -6 -7 -2 -13 -10 -13 -16 0 -26 23 14 26 45 2 18 6 50 9 71 3 23 1 37 -5 37
-6 0 -9 4 -5 9 3 6 -4 15 -16 21 -19 11 -20 10 -14 -9 9 -30 -13 -26 -25 4
-11 29 -10 29 -31 5z m81 -62 c0 -6 -6 -5 -15 2 -8 7 -15 14 -15 16 0 2 7 1
15 -2 8 -4 15 -11 15 -16z"/>
<path d="M20 389 c0 -5 -4 -7 -10 -4 -7 4 -10 -62 -10 -189 l0 -196 215 0 215
0 -25 37 c-37 57 -66 113 -58 113 5 0 30 -34 57 -75 46 -72 50 -75 87 -75 33
0 38 3 42 28 l4 27 2 -27 c1 -26 4 -28 40 -28 22 0 42 5 44 13 4 9 6 9 6 0 1
-8 16 -13 42 -13 29 0 40 4 36 13 -48 123 -112 241 -127 232 -5 -3 -11 -1 -15
5 -4 6 -12 7 -18 3 -20 -13 -51 -10 -69 5 -10 8 -18 12 -18 7 0 -4 -8 -1 -17
6 -11 10 -14 10 -9 2 4 -8 1 -13 -9 -13 -9 0 -14 4 -11 8 2 4 -6 8 -19 8 -23
0 -23 -1 -8 -18 15 -17 15 -18 -1 -18 -11 0 -15 -4 -10 -12 6 -10 4 -10 -7 -2
-12 9 -33 11 -41 4 -15 -11 -37 -4 -42 13 -4 15 -8 18 -18 10 -9 -8 -16 -7
-25 2 -6 7 -10 15 -7 17 2 3 -14 4 -36 4 -25 -1 -36 2 -30 8 6 6 3 17 -8 30
-14 18 -13 17 9 -2 20 -17 26 -19 26 -7 0 8 -6 15 -12 15 -7 0 -18 7 -25 15
-7 9 -15 13 -18 10 -3 -3 -11 0 -19 7 -9 7 -13 8 -11 1 2 -6 -1 -11 -7 -12 -5
-1 -10 5 -10 12 0 6 -9 11 -18 9 -21 -4 -49 16 -41 29 3 5 0 9 -5 9 -6 0 -11
-5 -11 -11z m67 -36 c-9 -8 22 -43 39 -43 18 0 27 -17 13 -26 -8 -4 -9 -3 -5
4 5 8 -2 12 -18 12 -14 0 -26 5 -26 10 0 6 -8 10 -17 8 -22 -4 -24 24 -3 34
20 9 25 9 17 1z m58 -22 c-9 -8 -36 -10 -30 -2 2 4 11 8 20 8 8 0 13 -3 10 -6z
m155 -261 c0 -5 -7 -10 -16 -10 -8 0 -12 5 -9 10 3 6 10 10 16 10 5 0 9 -4 9
-10z m380 -14 c0 -3 -4 -8 -10 -11 -5 -3 -10 -1 -10 4 0 6 5 11 10 11 6 0 10
-2 10 -4z"/>
<path d="M2967 386 c-7 -19 4 -27 21 -17 10 6 10 10 -1 20 -12 9 -16 8 -20 -3z"/>
<path d="M3882 388 c-17 -17 -15 -29 8 -58 l21 -25 -6 25 c-3 14 -7 35 -8 48
0 12 -2 22 -2 22 -1 0 -6 -5 -13 -12z"/>
<path d="M3762 368 c-7 -7 -18 -13 -24 -13 -16 0 -19 -17 -7 -35 7 -11 12 -12
15 -3 3 7 12 9 20 6 17 -6 19 -24 2 -20 -7 1 -13 -7 -13 -18 0 -14 7 -20 24
-20 14 0 26 -5 28 -11 2 -6 15 -9 28 -6 14 2 22 9 18 15 -4 7 0 8 11 4 10 -4
20 -7 22 -7 2 0 4 -7 4 -17 0 -9 3 -13 6 -10 4 3 -1 22 -10 41 -9 19 -16 40
-16 48 0 8 -7 23 -15 34 -14 19 -14 19 -15 -2 0 -20 -17 -34 -41 -34 -5 0 -9
7 -9 15 0 8 7 15 15 15 8 0 15 5 15 11 0 6 -7 9 -15 5 -8 -3 -15 -1 -15 4 0
14 -14 12 -28 -2z m63 -68 c3 -5 -1 -10 -10 -10 -9 0 -13 5 -10 10 3 6 8 10
10 10 2 0 7 -4 10 -10z"/>
<path d="M2494 339 c-3 -6 -15 -9 -25 -6 -10 3 -19 1 -21 -3 -2 -4 -14 -11
-28 -15 -22 -7 -23 -6 -11 9 11 14 11 16 -1 16 -9 0 -15 -8 -15 -17 0 -36 -3
-43 -18 -43 -8 0 -15 -5 -15 -11 0 -6 9 -8 20 -4 15 5 18 3 14 -9 -7 -19 -40
-21 -47 -3 -4 9 -6 9 -6 -1 -1 -8 8 -16 19 -19 24 -6 26 -19 4 -27 -8 -3 -12
-2 -9 4 3 6 2 10 -3 10 -6 0 -12 -7 -16 -15 -3 -8 -1 -15 5 -15 6 0 8 -4 5 -9
-3 -5 2 -19 12 -32 15 -17 21 -19 27 -9 5 8 4 11 -3 6 -6 -3 -14 -1 -18 5 -3
6 0 15 7 20 8 5 11 9 6 9 -4 0 0 14 8 31 13 23 19 28 29 20 10 -8 17 -7 26 4
11 13 10 15 -6 9 -15 -5 -16 -4 -5 4 10 7 21 7 33 1 16 -9 17 -7 6 16 -6 14
-15 25 -20 25 -5 0 -6 5 -3 10 10 17 25 11 25 -10 0 -11 5 -20 10 -20 6 0 9 3
9 8 -4 21 3 32 17 32 13 0 14 3 5 13 -6 8 -8 17 -4 20 3 4 4 7 0 7 -3 0 -9 -5
-13 -11z"/>
<path d="M2985 341 c3 -5 1 -12 -5 -16 -17 -10 -11 -24 10 -22 12 1 16 5 11
10 -5 5 -7 16 -4 23 3 8 0 14 -7 14 -6 0 -9 -4 -5 -9z"/>
<path d="M2146 331 c-4 -6 -4 -11 0 -11 4 0 -1 -9 -10 -19 -10 -11 -15 -25
-11 -30 3 -6 2 -11 -4 -11 -5 0 -12 6 -14 13 -4 7 -8 4 -12 -10 -5 -14 -15
-22 -29 -21 -39 2 -46 -2 -46 -25 0 -24 17 -47 35 -47 5 0 1 7 -9 15 -11 8
-15 15 -10 15 6 0 15 -5 22 -12 7 -7 12 -8 12 -3 0 4 9 0 20 -10 18 -16 20
-16 36 -1 10 11 15 27 12 47 -4 26 -2 30 15 25 15 -4 17 -2 8 7 -6 6 -11 21
-11 33 0 17 5 22 18 19 11 -2 19 3 19 10 0 8 -5 11 -10 8 -5 -3 -13 0 -17 7
-5 9 -9 9 -14 1z m-33 -136 c-3 -9 -8 -14 -10 -11 -3 3 -2 9 2 15 9 16 15 13
8 -4z"/>
<path d="M3596 318 c-7 -21 -3 -48 6 -48 15 0 8 -18 -8 -22 -14 -3 -14 -5 3
-21 18 -16 21 -16 33 -2 7 9 9 15 4 14 -21 -4 -26 2 -14 15 9 11 18 13 38 5
24 -8 25 -8 9 5 -10 8 -13 16 -8 17 21 8 -5 28 -28 22 -17 -4 -20 -8 -9 -15
10 -8 10 -9 -2 -5 -8 2 -14 14 -13 26 3 23 -5 29 -11 9z"/>
<path d="M2310 309 c0 -5 5 -7 10 -4 6 3 10 8 10 11 0 2 -4 4 -10 4 -5 0 -10
-5 -10 -11z"/>
<path d="M3674 288 c2 -12 9 -22 15 -21 5 2 8 -4 5 -12 -6 -14 -18 -19 -37
-16 -5 1 -6 -3 -2 -9 3 -5 -1 -10 -9 -10 -25 0 -19 -18 7 -22 20 -3 20 -5 -10
-21 -31 -17 -38 -15 -33 8 1 6 -4 5 -11 -2 -9 -9 -5 -21 19 -54 l32 -42 -5 41
c-2 23 0 42 5 42 6 0 10 -9 10 -20 0 -11 5 -20 11 -20 5 0 7 -5 3 -12 -4 -6
-3 -8 2 -5 13 7 28 -3 42 -28 6 -11 12 -14 12 -7 0 7 -12 24 -26 39 -14 14
-23 28 -20 31 8 7 56 -38 67 -63 8 -17 9 -16 4 5 -2 14 -5 33 -5 43 0 10 -4
15 -10 12 -5 -3 -10 4 -10 15 0 16 -5 20 -15 16 -8 -3 -15 -1 -15 4 0 6 7 10
15 10 18 0 18 2 6 32 -17 43 -24 63 -25 72 -1 5 -7 11 -14 14 -8 2 -11 -4 -8
-20z"/>
<path d="M258 278 c2 -10 8 -15 13 -12 5 3 6 10 3 16 -4 6 -2 8 4 4 6 -3 13
-3 16 2 2 4 -6 8 -18 8 -17 0 -22 -5 -18 -18z"/>
<path d="M2954 285 c16 -17 42 -20 50 -6 4 5 -2 7 -13 4 -10 -3 -22 0 -25 6
-4 6 -12 11 -17 11 -6 0 -4 -7 5 -15z"/>
<path d="M301 278 c-23 -8 -23 -9 -6 -28 14 -15 21 -17 31 -9 8 6 12 15 9 19
-3 5 3 10 12 12 16 3 15 5 -2 9 -12 3 -31 2 -44 -3z m25 -13 c-1 -8 -5 -17 -8
-21 -5 -4 -4 16 1 34 3 9 9 -1 7 -13z"/>
<path d="M2230 279 c0 -5 -4 -7 -10 -4 -6 3 -7 -1 -4 -10 4 -9 7 -15 8 -13 1
2 8 11 15 21 9 11 10 17 2 17 -6 0 -11 -5 -11 -11z"/>
<path d="M2786 271 c-3 -5 1 -14 8 -20 12 -10 13 -8 9 8 -6 23 -9 25 -17 12z"/>
<path d="M3930 272 c0 -15 21 -54 34 -64 6 -4 4 -13 -4 -23 -11 -14 -11 -16 0
-13 8 2 16 -5 18 -16 3 -13 0 -16 -9 -11 -8 6 -10 4 -3 -6 13 -21 16 -51 4
-44 -5 3 -10 14 -10 23 0 12 -3 13 -12 4 -14 -14 9 -45 28 -38 9 3 17 -8 24
-34 6 -22 16 -42 22 -46 8 -5 9 -1 3 12 -13 31 -11 57 5 62 12 4 13 3 3 -10
-10 -12 -10 -20 0 -41 12 -26 37 -37 37 -17 0 6 5 10 11 10 5 0 7 -4 4 -10 -3
-5 1 -10 10 -10 14 0 14 3 0 30 -8 16 -28 41 -43 55 -19 18 -21 24 -8 19 18
-7 18 -6 0 22 l-19 28 -3 -29 c-5 -52 -13 -63 -24 -35 -15 35 -18 50 -9 50 5
0 8 14 9 30 0 17 -4 30 -9 30 -5 0 -9 8 -9 18 -1 17 -30 63 -30 46 0 -5 -5 -2
-10 6 -7 10 -10 11 -10 2z m139 -216 c9 -10 8 -15 -3 -19 -10 -4 -14 0 -13 14
2 23 1 23 16 5z"/>
<path d="M677 132 l68 -130 159 0 c88 0 165 2 173 5 23 9 14 33 -13 33 -14 0
-23 4 -20 9 3 5 15 7 26 4 30 -8 25 14 -15 79 -22 34 -41 55 -49 52 -7 -3 -18
1 -24 9 -9 11 -8 14 3 14 8 0 12 -4 9 -9 -3 -4 0 -8 5 -8 17 0 13 15 -11 36
-12 10 -18 14 -15 7 4 -6 2 -15 -5 -20 -19 -11 -39 -13 -32 -2 3 5 -2 9 -10 9
-8 0 -18 -4 -21 -10 -3 -5 -13 -10 -22 -10 -28 0 6 30 36 31 25 1 25 2 -4 8
-16 4 -34 4 -40 0 -5 -3 -18 -5 -28 -4 -9 2 -15 -1 -11 -6 3 -5 -4 -9 -15 -9
-12 0 -21 5 -21 11 0 5 4 8 8 5 5 -3 9 2 9 10 0 10 -8 8 -26 -10 -20 -18 -31
-22 -46 -15 -18 9 -18 9 3 5 12 -2 22 0 22 5 0 11 2 10 -75 11 -33 1 -66 5
-73 11 -7 5 18 -49 55 -121z m173 47 c0 -6 -4 -7 -10 -4 -5 3 -10 11 -10 16 0
6 5 7 10 4 6 -3 10 -11 10 -16z m95 1 c-3 -5 -11 -10 -16 -10 -6 0 -7 5 -4 10
3 6 11 10 16 10 6 0 7 -4 4 -10z m95 -50 c0 -5 -4 -10 -10 -10 -5 0 -10 5 -10
10 0 6 5 10 10 10 6 0 10 -4 10 -10z m-120 -40 c0 -5 -5 -10 -11 -10 -5 0 -7
5 -4 10 3 6 8 10 11 10 2 0 4 -4 4 -10z m149 -3 c-2 -1 -13 -9 -24 -17 -19
-14 -19 -14 -6 3 7 9 18 17 24 17 6 0 8 -1 6 -3z m-59 -47 c0 -5 -5 -10 -11
-10 -5 0 -7 5 -4 10 3 6 8 10 11 10 2 0 4 -4 4 -10z m-180 -20 c-20 -13 -33
-13 -25 0 3 6 14 10 23 10 15 0 15 -2 2 -10z"/>
<path d="M1950 235 c7 -8 16 -12 21 -9 13 8 1 24 -18 24 -13 0 -13 -3 -3 -15z"/>
<path d="M4971 233 c7 -12 15 -20 18 -17 3 2 -3 12 -13 22 -17 16 -18 16 -5
-5z"/>
<path d="M3172 183 c1 -49 6 -67 21 -80 19 -17 20 -17 8 4 -6 12 -11 37 -12
55 -1 18 -5 44 -9 58 -6 18 -8 8 -8 -37z"/>
<path d="M1914 208 c-4 -14 -1 -25 10 -33 8 -7 13 -14 10 -17 -3 -4 0 -9 7
-14 12 -7 10 8 -7 51 -7 18 -6 19 9 6 22 -17 34 -7 17 14 -18 21 -38 19 -46
-7z"/>
<path d="M1048 185 c11 -22 27 -49 36 -60 15 -19 15 -19 16 7 0 17 -5 27 -12
25 -7 -1 -12 3 -11 9 1 6 -9 22 -24 35 l-25 24 20 -40z"/>
<path d="M1416 207 c3 -10 9 -15 12 -12 3 3 0 11 -7 18 -10 9 -11 8 -5 -6z"/>
<path d="M3780 200 c0 -5 5 -10 11 -10 5 0 7 5 4 10 -3 6 -8 10 -11 10 -2 0
-4 -4 -4 -10z"/>
<path d="M3880 200 c0 -5 5 -10 11 -10 5 0 7 5 4 10 -3 6 -8 10 -11 10 -2 0
-4 -4 -4 -10z"/>
<path d="M1444 186 c-14 -15 16 -70 40 -74 13 -3 16 0 10 10 -6 10 -5 10 9 -1
14 -11 17 -11 17 -1 0 8 7 21 15 30 13 14 12 18 -5 33 -16 14 -20 14 -20 2 0
-7 -5 -17 -12 -21 -7 -5 -9 -2 -4 7 4 8 0 5 -8 -5 -9 -11 -16 -18 -17 -15 -8
48 -10 51 -25 35z"/>
<path d="M1870 193 c8 -3 19 -11 23 -17 6 -7 7 -6 4 4 -2 8 -12 16 -23 17 -13
2 -15 1 -4 -4z"/>
<path d="M2271 193 c3 -20 -2 -27 -11 -13 -8 12 -10 11 -10 -6 0 -17 6 -22 23
-20 18 1 23 6 19 19 -4 17 -24 36 -21 20z"/>
<path d="M3840 190 c0 -6 -4 -9 -9 -6 -5 3 -14 -1 -21 -9 -8 -9 -8 -15 -2 -15
6 0 18 -3 28 -7 12 -4 15 -3 10 5 -11 18 4 37 16 21 8 -12 9 -11 6 0 -5 18
-28 27 -28 11z"/>
<path d="M3924 155 c-1 -25 2 -30 12 -21 9 8 9 14 0 25 -6 8 -9 16 -8 18 2 3
2 6 0 8 -2 2 -3 -11 -4 -30z"/>
<path d="M2067 172 c-9 -17 10 -47 31 -49 12 -2 22 -1 22 1 0 9 -49 55 -53 48z"/>
<path d="M2834 172 c2 -4 0 -14 -5 -22 -8 -12 -12 -12 -16 -2 -2 6 -12 12 -20
12 -11 0 -7 -7 11 -21 28 -22 36 -55 11 -45 -18 7 -19 2 -3 -23 10 -17 13 -17
27 -4 13 13 17 11 39 -26 13 -23 29 -41 34 -41 11 0 -35 67 -61 88 -12 10 -13
17 -5 30 11 16 2 62 -11 62 -4 0 -4 -4 -1 -8z"/>
<path d="M3890 175 c0 -5 5 -17 10 -25 5 -8 10 -10 10 -5 0 6 -5 17 -10 25 -5
8 -10 11 -10 5z"/>
<path d="M4165 160 c2 -14 5 -31 5 -38 0 -7 4 -11 9 -8 5 4 12 0 15 -6 3 -7 3
-2 0 12 -4 14 -10 27 -14 30 -4 3 -10 12 -14 20 -3 8 -4 4 -1 -10z"/>
<path d="M1386 152 c-3 -6 -1 -14 5 -17 14 -9 20 -2 10 14 -6 8 -11 9 -15 3z"/>
<path d="M3576 145 c4 -8 11 -15 16 -15 6 0 5 6 -2 15 -7 8 -14 15 -16 15 -2
0 -1 -7 2 -15z"/>
<path d="M3866 152 c-3 -6 1 -26 9 -46 18 -42 18 -46 5 -46 -5 0 -9 3 -8 8 0
4 -2 15 -7 25 -7 17 -8 17 -22 -3 -19 -27 -9 -54 17 -47 11 3 20 2 20 -3 0 -4
-9 -10 -20 -13 -25 -6 -26 -27 -2 -27 23 0 57 35 43 44 -6 4 -8 13 -4 21 3 8
2 23 -2 33 -4 9 -9 25 -10 34 -2 23 -11 32 -19 20z m-6 -82 c0 -5 -5 -10 -11
-10 -5 0 -7 5 -4 10 3 6 8 10 11 10 2 0 4 -4 4 -10z"/>
<path d="M2490 135 c7 -9 15 -13 17 -11 7 7 -7 26 -19 26 -6 0 -6 -6 2 -15z"/>
<path d="M2687 130 c3 -11 15 -25 27 -31 19 -9 19 -9 4 4 -10 8 -18 19 -18 25
0 6 -4 13 -9 16 -5 4 -7 -3 -4 -14z"/>
<path d="M3510 136 c0 -2 8 -10 18 -17 15 -13 16 -12 3 4 -13 16 -21 21 -21
13z"/>
<path d="M3810 136 c0 -2 7 -7 16 -10 8 -3 12 -2 9 4 -6 10 -25 14 -25 6z"/>
<path d="M1280 126 c0 -2 7 -9 15 -16 9 -7 15 -8 15 -2 0 5 -7 12 -15 16 -8 3
-15 4 -15 2z"/>
<path d="M1127 113 c-11 -10 -8 -63 3 -63 6 0 10 16 10 35 0 36 -2 40 -13 28z"/>
<path d="M1217 108 c4 -7 8 -17 8 -23 0 -5 8 -11 19 -13 18 -4 18 -3 0 22 -19
25 -42 37 -27 14z"/>
<path d="M2240 110 c0 -5 5 -10 11 -10 5 0 7 5 4 10 -3 6 -8 10 -11 10 -2 0
-4 -4 -4 -10z"/>
<path d="M3585 99 c-4 -12 -2 -26 4 -32 8 -8 11 -7 11 5 0 9 3 23 6 32 3 9 1
16 -4 16 -6 0 -14 -9 -17 -21z"/>
<path d="M1800 96 c0 -8 4 -17 9 -20 5 -4 7 3 4 14 -6 23 -13 26 -13 6z"/>
<path d="M1270 84 c0 -8 5 -12 10 -9 6 4 8 11 5 16 -9 14 -15 11 -15 -7z"/>
<path d="M2670 90 c0 -8 5 -22 10 -30 9 -13 10 -13 10 0 0 8 -5 22 -10 30 -9
13 -10 13 -10 0z"/>
<path d="M3492 74 c-2 -23 0 -25 13 -14 12 10 13 16 4 26 -15 18 -14 18 -17
-12z"/>
<path d="M4162 70 c0 -19 7 -43 16 -52 22 -26 35 -22 17 6 -17 25 -17 45 0 59
6 5 3 7 -7 4 -9 -3 -19 -1 -21 6 -3 7 -5 -4 -5 -23z"/>
<path d="M1353 72 c1 -14 5 -18 11 -12 7 7 6 14 -1 21 -9 9 -12 7 -10 -9z"/>
<path d="M2011 63 c-13 -27 -13 -28 8 -9 11 10 18 23 15 27 -8 13 -10 12 -23
-18z"/>
<path d="M3170 75 c0 -8 2 -15 4 -15 2 0 12 -3 20 -6 12 -4 15 -2 10 9 -8 21
-34 30 -34 12z"/>
<path d="M3535 80 c-8 -12 13 -32 25 -25 9 5 11 4 6 -3 -10 -16 -33 -15 -39 1
-4 9 -7 9 -18 0 -9 -9 -16 -9 -25 -2 -9 7 -17 4 -28 -13 -9 -12 -16 -25 -16
-29 0 -3 29 -6 65 -5 36 0 65 4 65 8 0 5 -5 8 -11 8 -6 0 -3 7 6 16 11 11 13
20 5 28 -5 7 -8 15 -5 18 3 2 -2 5 -10 5 -9 0 -18 -3 -20 -7z m-57 -69 c-15
-5 -19 4 -11 24 6 18 7 18 13 -1 4 -10 3 -21 -2 -23z"/>
<path d="M3682 60 c-8 -13 -8 -20 -2 -20 6 0 13 7 17 15 9 24 -1 27 -15 5z"/>
<path d="M3922 41 c0 -40 1 -41 34 -41 32 0 34 2 34 35 0 21 -5 35 -12 35 -7
0 -23 3 -35 6 -20 5 -22 2 -21 -35z"/>
<path d="M4105 70 c-3 -5 -1 -10 4 -10 6 0 11 5 11 10 0 6 -2 10 -4 10 -3 0
-8 -4 -11 -10z"/>
<path d="M4201 66 c-9 -11 -6 -20 13 -42 14 -16 26 -24 26 -18 0 6 -6 17 -14
23 -8 7 -12 21 -9 31 6 23 0 26 -16 6z"/>
<path d="M1545 50 c-3 -5 -1 -10 4 -10 6 0 11 5 11 10 0 6 -2 10 -4 10 -3 0
-8 -4 -11 -10z"/>
<path d="M1770 51 c0 -5 -8 -12 -17 -14 -14 -4 -12 -5 5 -6 13 -1 22 5 22 14
0 8 -2 15 -5 15 -3 0 -5 -4 -5 -9z"/>
<path d="M2427 54 c-7 -7 2 -34 12 -34 4 0 7 9 8 20 2 19 -8 26 -20 14z"/>
<path d="M2703 44 c-3 -8 -2 -19 3 -24 5 -5 9 1 9 16 0 28 -3 30 -12 8z"/>
<path d="M2760 26 c0 -14 5 -26 10 -26 6 0 10 9 10 19 0 11 -4 23 -10 26 -6 4
-10 -5 -10 -19z"/>
<path d="M2846 28 c8 -29 10 -31 23 -24 7 5 7 13 -2 26 -16 27 -30 25 -21 -2z"/>
<path d="M3174 24 c6 -13 16 -24 23 -24 17 0 7 23 -16 37 -17 11 -18 10 -7
-13z"/>
<path d="M3760 42 c0 -5 7 -17 16 -28 14 -17 15 -17 10 -1 -3 10 -6 23 -6 28
0 5 -4 9 -10 9 -5 0 -10 -4 -10 -8z"/>
<path d="M1393 23 c0 -9 4 -10 14 -2 7 6 13 12 13 14 0 1 -6 2 -13 2 -8 0 -14
-6 -14 -14z"/>
<path d="M1793 25 c0 -8 7 -15 15 -15 12 0 12 3 2 15 -7 8 -13 15 -15 15 -1 0
-2 -7 -2 -15z"/>
<path d="M3580 19 c0 -11 4 -18 10 -14 5 3 7 12 3 20 -7 21 -13 19 -13 -6z"/>
<path d="M1180 16 c0 -9 5 -16 10 -16 6 0 10 4 10 9 0 6 -4 13 -10 16 -5 3
-10 -1 -10 -9z"/>
<path d="M2460 16 c0 -9 5 -16 10 -16 6 0 10 4 10 9 0 6 -4 13 -10 16 -5 3
-10 -1 -10 -9z"/>
<path d="M1438 13 c7 -3 16 -2 19 1 4 3 -2 6 -13 5 -11 0 -14 -3 -6 -6z"/>
</g>
</svg>
